<svg width="65" height="64" viewBox="0 0 65 64" fill="none" xmlns="http://www.w3.org/2000/svg">
<rect x="0.660156" width="64" height="64" rx="32" fill="url(#paint0_linear_4_128)"/>
<path d="M32.0761 20.3546C32.1336 20.2501 32.2182 20.163 32.3209 20.1023C32.4236 20.0415 32.5408 20.0095 32.6601 20.0095C32.7794 20.0095 32.8965 20.0415 32.9993 20.1023C33.102 20.163 33.1865 20.2501 33.2441 20.3546L37.1801 27.8266C37.2739 27.9997 37.4049 28.1498 37.5637 28.2661C37.7224 28.3825 37.905 28.4623 38.0982 28.4998C38.2914 28.5373 38.4906 28.5315 38.6813 28.4829C38.8721 28.4343 39.0497 28.344 39.2014 28.2186L44.9041 23.3333C45.0135 23.2443 45.1484 23.1923 45.2894 23.1848C45.4303 23.1773 45.5699 23.2147 45.6882 23.2916C45.8065 23.3686 45.8973 23.4811 45.9476 23.6129C45.9979 23.7447 46.0051 23.8891 45.9681 24.0253L42.1894 37.6866C42.1123 37.9662 41.9461 38.213 41.7161 38.3896C41.4861 38.5662 41.2047 38.663 40.9147 38.6653H24.4067C24.1165 38.6633 23.8349 38.5666 23.6046 38.39C23.3743 38.2134 23.2079 37.9664 23.1307 37.6866L19.3534 24.0266C19.3164 23.8905 19.3236 23.7461 19.3739 23.6142C19.4242 23.4824 19.515 23.3699 19.6333 23.293C19.7516 23.216 19.8912 23.1786 20.0321 23.1861C20.173 23.1936 20.3079 23.2456 20.4174 23.3346L26.1187 28.22C26.2705 28.3454 26.4481 28.4356 26.6388 28.4842C26.8296 28.5328 27.0287 28.5386 27.2219 28.5011C27.4152 28.4637 27.5977 28.3839 27.7565 28.2675C27.9152 28.1511 28.0462 28.001 28.1401 27.828L32.0761 20.3546Z" stroke="#0A0A0A" stroke-width="2.66667" stroke-linecap="round" stroke-linejoin="round"/>
<path d="M23.3267 44H41.9933" stroke="#0A0A0A" stroke-width="2.66667" stroke-linecap="round" stroke-linejoin="round"/>
<defs>
<linearGradient id="paint0_linear_4_128" x1="0.660156" y1="0" x2="64.6602" y2="64" gradientUnits="userSpaceOnUse">
<stop stop-color="#22D3EE"/>
<stop offset="1" stop-color="#0D9488"/>
</linearGradient>
</defs>
</svg>
