<svg width="65" height="64" viewBox="0 0 65 64" fill="none" xmlns="http://www.w3.org/2000/svg">
<rect x="0.330078" width="64" height="64" rx="32" fill="url(#paint0_linear_4_73)"/>
<path d="M31.6965 19.06C31.755 18.9419 31.8452 18.8426 31.9571 18.7731C32.0691 18.7036 32.1982 18.6668 32.3299 18.6668C32.4616 18.6668 32.5907 18.7036 32.7026 18.7731C32.8145 18.8426 32.9048 18.9419 32.9632 19.06L36.0432 25.2987C36.2461 25.7093 36.5456 26.0645 36.916 26.3339C37.2865 26.6033 37.7167 26.7788 38.1699 26.8453L45.0579 27.8533C45.1884 27.8722 45.311 27.9273 45.4119 28.0123C45.5127 28.0972 45.5878 28.2087 45.6286 28.3341C45.6694 28.4596 45.6742 28.5939 45.6427 28.7219C45.6111 28.85 45.5443 28.9666 45.4499 29.0587L40.4685 33.9093C40.14 34.2295 39.8942 34.6246 39.7523 35.0608C39.6104 35.497 39.5766 35.9612 39.6539 36.4133L40.8299 43.2667C40.8529 43.3971 40.8388 43.5314 40.7892 43.6542C40.7396 43.7771 40.6564 43.8835 40.5493 43.9613C40.4421 44.0392 40.3152 44.0853 40.183 44.0945C40.0509 44.1037 39.9188 44.0756 39.8019 44.0133L33.6445 40.776C33.2388 40.563 32.7874 40.4517 32.3292 40.4517C31.871 40.4517 31.4196 40.563 31.0139 40.776L24.8579 44.0133C24.741 44.0752 24.6091 44.1031 24.4771 44.0937C24.3452 44.0843 24.2186 44.0381 24.1116 43.9603C24.0046 43.8825 23.9217 43.7763 23.8721 43.6536C23.8225 43.531 23.8084 43.3969 23.8312 43.2667L25.0059 36.4147C25.0835 35.9623 25.0499 35.4979 24.9079 35.0614C24.766 34.6249 24.52 34.2295 24.1912 33.9093L19.2099 29.06C19.1147 28.968 19.0472 28.8512 19.0152 28.7228C18.9831 28.5943 18.9878 28.4595 19.0286 28.3336C19.0695 28.2077 19.1449 28.0958 19.2462 28.0106C19.3476 27.9255 19.4708 27.8705 19.6019 27.852L26.4885 26.8453C26.9422 26.7793 27.3731 26.6041 27.744 26.3347C28.1149 26.0652 28.4148 25.7097 28.6179 25.2987L31.6965 19.06Z" stroke="#0A0A0A" stroke-width="2.66667" stroke-linecap="round" stroke-linejoin="round"/>
<defs>
<linearGradient id="paint0_linear_4_73" x1="0.330078" y1="0" x2="64.3301" y2="64" gradientUnits="userSpaceOnUse">
<stop stop-color="#60A5FA"/>
<stop offset="1" stop-color="#4F46E5"/>
</linearGradient>
</defs>
</svg>
