<svg width="65" height="64" viewBox="0 0 65 64" fill="none" xmlns="http://www.w3.org/2000/svg">
<rect x="0.660156" width="64" height="64" rx="32" fill="url(#paint0_linear_4_85)"/>
<path d="M25.9937 29.3333V45.3333" stroke="#0A0A0A" stroke-width="2.66667" stroke-linecap="round" stroke-linejoin="round"/>
<path d="M36.66 23.84L35.3267 29.3334H43.1C43.514 29.3334 43.9223 29.4297 44.2926 29.6149C44.6628 29.8 44.9849 30.0688 45.2333 30.4C45.4817 30.7312 45.6496 31.1157 45.7236 31.523C45.7977 31.9303 45.7759 32.3493 45.66 32.7467L42.5533 43.4134C42.3918 43.9673 42.0549 44.4538 41.5933 44.8C41.1317 45.1462 40.5703 45.3334 39.9933 45.3334H21.9933C21.2861 45.3334 20.6078 45.0524 20.1077 44.5523C19.6076 44.0522 19.3267 43.3739 19.3267 42.6667V32C19.3267 31.2928 19.6076 30.6145 20.1077 30.1144C20.6078 29.6143 21.2861 29.3334 21.9933 29.3334H25.6733C26.1694 29.3331 26.6556 29.1944 27.0773 28.933C27.4989 28.6715 27.8392 28.2976 28.06 27.8534L32.66 18.6667C33.2888 18.6745 33.9076 18.8242 34.4704 19.1048C35.0332 19.3854 35.5252 19.7895 35.9099 20.287C36.2945 20.7844 36.5617 21.3624 36.6916 21.9776C36.8215 22.5929 36.8107 23.2295 36.66 23.84Z" stroke="#0A0A0A" stroke-width="2.66667" stroke-linecap="round" stroke-linejoin="round"/>
<defs>
<linearGradient id="paint0_linear_4_85" x1="0.660156" y1="0" x2="64.6602" y2="64" gradientUnits="userSpaceOnUse">
<stop stop-color="#4ADE80"/>
<stop offset="1" stop-color="#059669"/>
</linearGradient>
</defs>
</svg>
