<svg width="17" height="16" viewBox="0 0 17 16" fill="none" xmlns="http://www.w3.org/2000/svg">
<path d="M5.51367 9.33337C7.72281 9.33337 9.51367 7.54251 9.51367 5.33337C9.51367 3.12424 7.72281 1.33337 5.51367 1.33337C3.30453 1.33337 1.51367 3.12424 1.51367 5.33337C1.51367 7.54251 3.30453 9.33337 5.51367 9.33337Z" stroke="white" stroke-width="1.33333" stroke-linecap="round" stroke-linejoin="round"/>
<path d="M12.2402 6.91333C12.8704 7.14828 13.4311 7.53835 13.8707 8.04746C14.3102 8.55657 14.6142 9.16829 14.7546 9.82604C14.8951 10.4838 14.8674 11.1663 14.6742 11.8106C14.4809 12.4548 14.1284 13.0399 13.6491 13.5117C13.1698 13.9836 12.5793 14.327 11.9321 14.5101C11.285 14.6933 10.6021 14.7103 9.94661 14.5596C9.29113 14.4089 8.68423 14.0954 8.18204 13.648C7.67985 13.2006 7.29858 12.6338 7.07349 12" stroke="white" stroke-width="1.33333" stroke-linecap="round" stroke-linejoin="round"/>
<path d="M4.84692 4H5.51359V6.66667" stroke="white" stroke-width="1.33333" stroke-linecap="round" stroke-linejoin="round"/>
<path d="M11.3201 9.2533L11.7867 9.72663L9.90674 11.6066" stroke="white" stroke-width="1.33333" stroke-linecap="round" stroke-linejoin="round"/>
</svg>
