<svg width="16" height="12" viewBox="0 0 16 12" fill="none" xmlns="http://www.w3.org/2000/svg">
<path d="M11.7768 1.33337H4.68348C4.02366 1.33353 3.38733 1.57829 2.8975 2.02035C2.40766 2.46241 2.09911 3.07037 2.03148 3.72671C2.02748 3.76137 2.02481 3.79404 2.02014 3.82804C1.96614 4.27737 1.56348 7.63737 1.56348 8.66671C1.56348 9.19714 1.77419 9.70585 2.14926 10.0809C2.52434 10.456 3.03304 10.6667 3.56348 10.6667C4.23014 10.6667 4.56348 10.3334 4.89681 10L5.83948 9.05737C6.08947 8.80731 6.42855 8.66678 6.78214 8.66671H9.67814C10.0317 8.66678 10.3708 8.80731 10.6208 9.05737L11.5635 10C11.8968 10.3334 12.2301 10.6667 12.8968 10.6667C13.4272 10.6667 13.936 10.456 14.311 10.0809C14.6861 9.70585 14.8968 9.19714 14.8968 8.66671C14.8968 7.63671 14.4941 4.27737 14.4401 3.82804C14.4355 3.79471 14.4328 3.76137 14.4288 3.72737C14.3613 3.07092 14.0528 2.46279 13.563 2.0206C13.0731 1.5784 12.4367 1.33354 11.7768 1.33337Z" stroke="white" stroke-width="1.33333" stroke-linecap="round" stroke-linejoin="round"/>
</svg>
