<svg width="17" height="16" viewBox="0 0 17 16" fill="none" xmlns="http://www.w3.org/2000/svg">
<path d="M10.9067 8.66664L14.3887 10.988C14.4389 11.0214 14.4973 11.0405 14.5575 11.0434C14.6177 11.0463 14.6776 11.0328 14.7307 11.0043C14.7839 10.9759 14.8283 10.9335 14.8593 10.8818C14.8903 10.8301 14.9067 10.7709 14.9067 10.7106V5.24664C14.9068 5.18799 14.8913 5.13037 14.8619 5.07961C14.8326 5.02884 14.7903 4.98672 14.7394 4.95751C14.6886 4.92829 14.6309 4.91301 14.5723 4.91321C14.5136 4.91341 14.4561 4.92908 14.4054 4.95864L10.9067 6.99997" stroke="white" stroke-width="1.33333" stroke-linecap="round" stroke-linejoin="round"/>
<path d="M9.57324 4H2.90658C2.1702 4 1.57324 4.59695 1.57324 5.33333V10.6667C1.57324 11.403 2.1702 12 2.90658 12H9.57324C10.3096 12 10.9066 11.403 10.9066 10.6667V5.33333C10.9066 4.59695 10.3096 4 9.57324 4Z" stroke="white" stroke-width="1.33333" stroke-linecap="round" stroke-linejoin="round"/>
</svg>
