<svg width="17" height="16" viewBox="0 0 17 16" fill="none" xmlns="http://www.w3.org/2000/svg">
<path d="M8.41008 14.6667C12.092 14.6667 15.0767 11.6819 15.0767 8.00004C15.0767 4.31814 12.092 1.33337 8.41008 1.33337C4.72818 1.33337 1.74341 4.31814 1.74341 8.00004C1.74341 11.6819 4.72818 14.6667 8.41008 14.6667Z" stroke="white" stroke-width="1.33333" stroke-linecap="round" stroke-linejoin="round"/>
<path d="M8.41016 12C10.6193 12 12.4102 10.2091 12.4102 8C12.4102 5.79086 10.6193 4 8.41016 4C6.20102 4 4.41016 5.79086 4.41016 8C4.41016 10.2091 6.20102 12 8.41016 12Z" stroke="white" stroke-width="1.33333" stroke-linecap="round" stroke-linejoin="round"/>
<path d="M8.41024 9.33329C9.14662 9.33329 9.74357 8.73634 9.74357 7.99996C9.74357 7.26358 9.14662 6.66663 8.41024 6.66663C7.67386 6.66663 7.0769 7.26358 7.0769 7.99996C7.0769 8.73634 7.67386 9.33329 8.41024 9.33329Z" stroke="white" stroke-width="1.33333" stroke-linecap="round" stroke-linejoin="round"/>
</svg>
