<svg width="17" height="16" viewBox="0 0 17 16" fill="none" xmlns="http://www.w3.org/2000/svg">
<path d="M12.7868 2H3.45345C2.71707 2 2.12012 2.59695 2.12012 3.33333V12.6667C2.12012 13.403 2.71707 14 3.45345 14H12.7868C13.5232 14 14.1201 13.403 14.1201 12.6667V3.33333C14.1201 2.59695 13.5232 2 12.7868 2Z" stroke="white" stroke-width="1.33333" stroke-linecap="round" stroke-linejoin="round"/>
<path d="M2.12012 5.99996C2.12012 5.64634 2.26059 5.3072 2.51064 5.05715C2.76069 4.8071 3.09983 4.66663 3.45345 4.66663H12.7868C13.1404 4.66663 13.4795 4.8071 13.7296 5.05715C13.9796 5.3072 14.1201 5.64634 14.1201 5.99996" stroke="white" stroke-width="1.33333" stroke-linecap="round" stroke-linejoin="round"/>
<path d="M2.12012 7.33337H4.12012C4.65345 7.33337 5.18678 7.53337 5.52012 7.93337L6.25345 8.53337C7.32012 9.60004 8.98678 9.60004 10.0535 8.53337L10.7868 7.93337C11.1201 7.60004 11.6535 7.33337 12.1868 7.33337H14.1201" stroke="white" stroke-width="1.33333" stroke-linecap="round" stroke-linejoin="round"/>
</svg>
